<?xml version="1.0" encoding="UTF-8"?>
<svg id="Camada_1" xmlns="http://www.w3.org/2000/svg" version="1.1" viewBox="0 0 1000 437.9">
  <!-- Generator: Adobe Illustrator 30.0.0, SVG Export Plug-In . SVG Version: 2.1.1 Build 4)  -->
  <defs>
    <style>
      .st0 {
        fill: #fff;
      }
    </style>
  </defs>
  <g>
    <path class="st0" d="M556.6,339.2c1.3,1.7,2,3.8,2,6.4s-1.3,6.2-4,8.1-6.6,2.9-11.8,2.9h-20.1v-40.4h18.9c4.8,0,8.4.9,11,2.8,2.6,1.9,3.9,4.4,3.9,7.7s-.5,3.8-1.4,5.3-2.2,2.7-3.8,3.6c2.2.7,4,2,5.3,3.7h0ZM530.2,322v11.1h10.6c2.6,0,4.6-.5,6-1.4,1.4-.9,2.1-2.3,2.1-4.1s-.7-3.2-2.1-4.2c-1.4-.9-3.4-1.4-6-1.4h-10.6ZM551,344.8c0-3.9-2.9-5.8-8.7-5.8h-12.1v11.6h12.1c5.8,0,8.7-1.9,8.7-5.8h0Z"/>
    <path class="st0" d="M605.8,350.2v6.3h-30.3v-40.4h29.5v6.3h-22v10.5h19.5v6.2h-19.5v11.1h22.8Z"/>
    <path class="st0" d="M660.1,356.5v-26.8c0,0-13.3,22.1-13.3,22.1h-3.3l-13.3-21.8v26.4h-7.2v-40.4h6.2l16,26.8,15.7-26.8h6.2v40.4c0,0-7,0-7,0h0Z"/>
    <path class="st0" d="M550.7,378c2.6,1.1,4.6,2.8,6,5,1.4,2.1,2.1,4.7,2.1,7.7s-.7,5.5-2.1,7.6c-1.4,2.2-3.4,3.8-6,5-2.6,1.1-5.6,1.7-9.1,1.7h-9.1v11.6h-7.5v-40.4h16.6c3.5,0,6.5.6,9.1,1.7h0ZM548.6,396.6c1.7-1.4,2.5-3.4,2.5-5.9s-.8-4.6-2.5-5.9-4.2-2.1-7.4-2.1h-8.8v16h8.8c3.3,0,5.8-.7,7.4-2.1h0Z"/>
    <path class="st0" d="M601.5,416.7l-8.2-11.8c-.3,0-.9,0-1.6,0h-9.1v11.8h-7.5v-40.4h16.6c3.5,0,6.5.6,9.1,1.7,2.6,1.1,4.6,2.8,6,5,1.4,2.1,2.1,4.7,2.1,7.7s-.7,5.6-2.2,7.8-3.6,3.8-6.4,4.9l9.3,13.3h-8.1ZM598.8,384.7c-1.7-1.4-4.2-2.1-7.4-2.1h-8.8v16.1h8.8c3.3,0,5.8-.7,7.4-2.1s2.5-3.4,2.5-6-.8-4.6-2.5-5.9Z"/>
    <path class="st0" d="M633.8,414.6c-3.3-1.8-5.9-4.3-7.8-7.4-1.9-3.2-2.8-6.7-2.8-10.6s.9-7.5,2.8-10.6c1.9-3.2,4.5-5.6,7.8-7.4s7-2.7,11.1-2.7,7.8.9,11.1,2.7c3.3,1.8,5.9,4.3,7.8,7.4,1.9,3.1,2.8,6.7,2.8,10.7s-.9,7.5-2.8,10.7c-1.9,3.1-4.5,5.6-7.8,7.4s-7,2.7-11.1,2.7-7.8-.9-11.1-2.7ZM652.2,408.9c2.2-1.2,3.8-2.9,5.1-5.1s1.8-4.6,1.8-7.3-.6-5.1-1.8-7.3-2.9-3.9-5.1-5.1c-2.2-1.2-4.6-1.8-7.3-1.8s-5.1.6-7.3,1.8c-2.2,1.2-3.8,2.9-5.1,5.1s-1.8,4.6-1.8,7.3.6,5.1,1.8,7.3c1.2,2.2,2.9,3.9,5.1,5.1,2.2,1.2,4.6,1.8,7.3,1.8s5.1-.6,7.3-1.8Z"/>
    <path class="st0" d="M691.2,382.6h-13.4v-6.3h34.2v6.3h-13.4v34h-7.5v-34h0Z"/>
    <path class="st0" d="M756.8,410.4v6.3h-30.3v-40.4h29.5v6.3h-22v10.5h19.5v6.2h-19.5v11.1h22.8Z"/>
    <path class="st0" d="M801.5,396h7.1v16.1c-2.1,1.6-4.5,2.9-7.3,3.8-2.8.9-5.6,1.3-8.5,1.3s-7.8-.9-11.1-2.7c-3.3-1.8-5.9-4.3-7.8-7.4-1.9-3.1-2.8-6.7-2.8-10.7s.9-7.5,2.8-10.7c1.9-3.1,4.5-5.6,7.8-7.4s7.1-2.7,11.2-2.7,6.5.6,9.2,1.7c2.8,1.1,5.1,2.8,7,4.9l-4.7,4.6c-3.1-3.1-6.8-4.6-11.1-4.6s-5.4.6-7.6,1.8-3.9,2.9-5.2,5c-1.2,2.1-1.9,4.6-1.9,7.4s.6,5.1,1.9,7.3c1.2,2.1,3,3.8,5.2,5.1s4.7,1.9,7.5,1.9,5.9-.7,8.3-2.1v-12.6h0Z"/>
    <path class="st0" d="M827.3,376.3h7.5v40.4h-7.5v-40.4Z"/>
    <path class="st0" d="M854.6,376.3h17.7c4.3,0,8.1.8,11.5,2.5s5.9,4,7.8,7.1c1.8,3.1,2.8,6.6,2.8,10.6s-.9,7.5-2.8,10.6c-1.8,3.1-4.4,5.4-7.8,7.1-3.3,1.7-7.2,2.5-11.5,2.5h-17.7v-40.4h0ZM871.9,410.3c3,0,5.6-.6,7.8-1.7s4-2.8,5.2-4.8,1.8-4.5,1.8-7.3-.6-5.2-1.8-7.3-2.9-3.7-5.2-4.8-4.8-1.7-7.8-1.7h-9.8v27.7h9.8Z"/>
    <path class="st0" d="M918.8,414.6c-3.3-1.8-5.9-4.3-7.8-7.4-1.9-3.2-2.8-6.7-2.8-10.6s.9-7.5,2.8-10.6c1.9-3.2,4.5-5.6,7.8-7.4s7-2.7,11.1-2.7,7.8.9,11.1,2.7c3.3,1.8,5.9,4.3,7.8,7.4,1.9,3.1,2.8,6.7,2.8,10.7s-.9,7.5-2.8,10.7c-1.9,3.1-4.5,5.6-7.8,7.4s-7,2.7-11.1,2.7-7.8-.9-11.1-2.7ZM937.2,408.9c2.2-1.2,3.8-2.9,5.1-5.1s1.8-4.6,1.8-7.3-.6-5.1-1.8-7.3-2.9-3.9-5.1-5.1c-2.2-1.2-4.6-1.8-7.3-1.8s-5.1.6-7.3,1.8c-2.2,1.2-3.8,2.9-5.1,5.1s-1.8,4.6-1.8,7.3.6,5.1,1.8,7.3c1.2,2.2,2.9,3.9,5.1,5.1,2.2,1.2,4.6,1.8,7.3,1.8s5.1-.6,7.3-1.8Z"/>
  </g>
  <g>
    <path class="st0" d="M236.9,284.3c-54.1,0-98.1-44-98.1-98.1s44-98.1,98.1-98.1,98.1,44,98.1,98.1-44,98.1-98.1,98.1h0ZM236.9,137.2c-27,0-48.9,21.9-48.9,48.9s21.9,48.9,48.9,48.9,48.9-21.9,48.9-48.9-22-48.9-48.9-48.9h0Z"/>
    <path class="st0" d="M848,284.3c-53,0-96.1-43.1-96.1-96.1s43.1-96.1,96.1-96.1,96.1,43.1,96.1,96.1-43.1,96.1-96.1,96.1ZM848,141.3c-25.9,0-46.9,21-46.9,46.9s21,46.9,46.9,46.9,46.9-21,46.9-46.9-21-46.9-46.9-46.9h0Z"/>
    <path class="st0" d="M617.5,88c-28.8.3-54.7,13.1-72.4,33.2-17.8-20.1-43.6-32.9-72.4-33.2-54.6-.6-99.2,44.7-99.2,99.2v89.6c0,1.7,1.4,3.1,3.1,3.1h43c1.7,0,3.1-1.4,3.1-3.1v-90c0-26.9,21.3-49.2,48.2-49.7,27.3-.4,49.7,21.7,49.7,48.9v90.7c0,1.7,1.4,3.1,3.1,3.1h43c1.7,0,3.1-1.4,3.1-3.1v-90c0-26.9,21.3-49.2,48.2-49.7,27.3-.4,49.7,21.7,49.7,48.9v90.7c0,1.7,1.4,3.1,3.1,3.1h43c1.7,0,3.1-1.4,3.1-3.1v-89.6c0-54.6-44.7-99.8-99.2-99.2h0Z"/>
    <path class="st0" d="M183.6,355.8h-36.7c-54.2,0-98.1-43.9-98.1-98.1V95.4c0-1.7,1.4-3.1,3.1-3.1h43c1.7,0,3.1,1.4,3.1,3.1v162.2c0,27,21.9,48.9,48.9,48.9h36.7c1.7,0,3.1,1.4,3.1,3.1v43c0,1.7-1.4,3.1-3.1,3.1h0Z"/>
    <path class="st0" d="M947.7,280h-43c-1.7,0-3.1-1.4-3.1-3.1V117.7c0-27-21.9-48.9-48.9-48.9h-36.7c-1.7,0-3.1-1.4-3.1-3.1V22.8c0-1.7,1.4-3.1,3.1-3.1h36.7c54.2,0,98.1,43.9,98.1,98.1v159.2c0,1.7-1.4,3.1-3.1,3.1h0Z"/>
  </g>
</svg>