<?xml version="1.0" encoding="UTF-8"?>
<svg id="OBJECTS" xmlns="http://www.w3.org/2000/svg" viewBox="0 0 52.5 52.5">
  <defs>
    <style>
      .cls-1 {
        fill: #282828;
      }

      .cls-1, .cls-2 {
        stroke-width: 0px;
      }

      .cls-3 {
        stroke: #fff;
        stroke-miterlimit: 10;
        stroke-width: 1.07px;
      }

      .cls-3, .cls-2 {
        fill: #fff;
      }
    </style>
  </defs>
  <circle class="cls-1" cx="26.25" cy="26.25" r="26.25"/>
  <g>
    <path class="cls-3" d="M19.89,37.02h0,0ZM32.61,14.51h0,0Z"/>
    <path class="cls-2" d="M26.25,34.18c4.37,0,7.93-3.56,7.93-7.93s-3.56-7.93-7.93-7.93-7.93,3.56-7.93,7.93,3.56,7.93,7.93,7.93ZM20.24,26.25c0-3.32,2.7-6.01,6.01-6.01s6.01,2.7,6.01,6.01-2.7,6.01-6.01,6.01-6.01-2.7-6.01-6.01Z"/>
    <path class="cls-2" d="M34.16,39.43h-15.82c-2.97,0-5.39-2.42-5.39-5.39v-15.58c0-2.97,2.42-5.39,5.39-5.39h15.82c2.97,0,5.39,2.42,5.39,5.39v15.58c0,2.97-2.42,5.39-5.39,5.39ZM18.34,15.04c-1.89,0-3.42,1.53-3.42,3.42v15.58c0,1.89,1.53,3.42,3.42,3.42h15.82c1.89,0,3.42-1.53,3.42-3.42v-15.58c0-1.89-1.53-3.42-3.42-3.42h-15.82Z"/>
  </g>
</svg>